<svg width="45" height="45" viewBox="0 0 45 45" fill="none" xmlns="http://www.w3.org/2000/svg">
<path fill-rule="evenodd" clip-rule="evenodd" d="M24.0078 6.35929C24.1383 6.97351 24.8296 7.64937 24.238 8.27923C24.015 8.61704 23.8619 8.97796 23.9308 9.4311C24.9675 10.1452 25.2367 8.10274 26.4649 8.81688C26.7491 8.57105 27.0332 8.33316 27.463 8.43284C27.3707 9.6153 28.6919 8.99337 29.3061 9.27749C29.9051 9.15469 30.9417 9.6153 30.9954 8.66303C31.1184 8.70155 31.2335 8.76295 31.3794 8.73984C31.4487 9.06247 31.1413 9.40028 31.6101 9.50791C32.14 9.3774 32.8229 9.83031 32.9155 9.12387C33.0843 9.08535 33.2457 9.21609 33.2996 9.27749L33.146 9.4311C33.5837 9.85342 34.0214 9.58471 34.6051 9.66152C34.9658 9.53872 34.5051 8.87828 35.0657 9.0473C35.227 9.33141 35.0351 9.75374 35.3729 9.96875C35.2807 10.0687 35.1427 10.0687 35.0657 10.1992C35.0734 10.5062 35.4574 10.5447 35.6799 10.66H36.141C36.1176 10.7291 36.1793 10.7674 36.2175 10.8136C34.8894 11.2976 32.6702 10.2914 32.2245 12.2727C31.9094 12.173 31.7562 12.5568 31.6103 12.7336C31.3185 12.6876 31.1338 12.3958 30.842 12.3495C30.7883 13.6242 31.4333 14.7992 32.0709 15.882C31.9021 16.0893 31.6948 16.2198 31.4567 16.266C30.6578 15.1986 30.3431 13.9317 29.844 12.7336C29.4756 12.9794 29.9056 13.4017 29.7674 13.8086C29.8286 14.0696 29.6904 14.1847 29.4602 14.1927L28.0011 13.8854C27.2561 14.2846 26.9874 15.6823 25.9278 15.3445C25.7972 15.4213 25.7359 15.6595 25.5437 15.575L25.4667 15.4982C24.9447 15.7055 24.3918 16.051 23.7774 15.8054C23.4627 15.8822 23.0483 15.7363 22.8564 16.1124C22.7254 16.8342 22.81 17.6406 22.6258 18.3393C22.2648 18.2394 21.9039 18.4621 21.8577 18.8001C21.7963 19.3378 21.9576 19.7755 22.0113 20.2592L22.6255 20.1056C23.0021 20.8658 23.7849 21.4571 24.2382 22.179C24.7376 22.8011 25.536 23.4307 25.5437 24.3291C25.3595 24.3751 25.237 24.5824 25.0831 24.7131C25.0677 25.3584 25.7816 25.7039 26.0041 26.249C26.6954 27.0169 26.9489 27.9614 27.6938 28.7061C27.4097 30.6644 28.5151 32.0467 28.231 34.0047C28.0622 35.4484 29.2834 36.3238 29.6901 37.5371V38.5353C28.2698 39.3263 27.0871 38.1667 26.0041 37.4603C25.1286 36.8075 25.5897 35.8861 25.4664 34.9263C24.8679 33.1603 24.4915 31.294 24.0078 29.4742C23.5085 28.5911 22.3489 27.9691 22.0111 27.0169C21.197 26.1106 20.5828 24.7208 19.3233 24.4059C19.0315 24.4981 19.2773 24.8051 19.0931 24.9433C18.1708 26.7181 17.4743 28.6013 17.0198 30.549C16.3439 31.7317 15.891 33.0064 15.3305 34.2351C14.5855 34.4195 13.6564 34.1737 12.9499 34.4655C13.0036 35.1565 13.5105 35.8478 13.1036 36.5391C12.3894 36.4854 11.4757 37.3608 10.9534 36.3854C9.93977 35.9554 10.0859 34.6422 9.64795 33.7745C9.90895 32.5838 10.9763 31.724 11.6447 30.7027C12.1284 30.3957 12.8271 30.4342 13.1038 29.7812C13.6183 27.0477 14.4707 24.4598 15.3307 21.872C15.3921 21.081 14.5398 20.3898 15.1771 19.645C15.0847 19.5145 14.9084 19.5836 14.7931 19.4914C15.4612 17.0495 16.0064 14.569 16.0986 11.8892C16.8895 10.8293 17.6111 9.60829 18.7095 8.81758C18.84 8.79447 19.0165 8.87898 19.0936 8.74077C18.9708 7.42011 19.109 5.8765 20.4756 5.20858C21.7192 4.51615 23.4314 5.01528 24.0078 6.35929V6.35929Z" fill="white"/>
<path fill-rule="evenodd" clip-rule="evenodd" d="M26.4637 11.2745C26.0336 12.1652 24.6205 11.359 24.1597 12.5032C23.8683 12.4572 23.5301 12.365 23.3918 12.1192L24.6208 11.1209C25.281 11.0595 25.8494 11.2206 26.4637 11.2745V11.2745Z" fill="#353535"/>
</svg>
