<svg width="27" height="27" viewBox="0 0 27 27" fill="none" xmlns="http://www.w3.org/2000/svg">
<circle cx="13.2836" cy="13.2836" r="12.7836" fill="url(#paint0_linear)" stroke="#302D2D"/>
<path d="M20.7692 8.42062C20.22 8.66154 19.6348 8.82123 19.0246 8.89877C19.6523 8.524 20.1314 7.93508 20.3566 7.22523C19.7714 7.57415 19.1252 7.82062 18.4366 7.95815C17.8809 7.36646 17.0889 7 16.2249 7C14.5486 7 13.1991 8.36062 13.1991 10.0286C13.1991 10.2686 13.2194 10.4994 13.2692 10.7191C10.752 10.5963 8.52462 9.38985 7.02831 7.552C6.76708 8.00523 6.61385 8.524 6.61385 9.08246C6.61385 10.1311 7.15385 11.0606 7.95877 11.5988C7.47231 11.5895 6.99508 11.4483 6.59077 11.2258C6.59077 11.2351 6.59077 11.2471 6.59077 11.2591C6.59077 12.7305 7.64031 13.9526 9.01662 14.2342C8.77015 14.3015 8.50154 14.3338 8.22277 14.3338C8.02892 14.3338 7.83323 14.3228 7.64954 14.2822C8.04185 15.4812 9.15508 16.3628 10.4788 16.3914C9.44862 17.1972 8.14062 17.6828 6.72462 17.6828C6.47631 17.6828 6.23815 17.6717 6 17.6412C7.34123 18.5062 8.93077 19 10.6449 19C16.2166 19 19.2628 14.3846 19.2628 10.384C19.2628 10.2502 19.2582 10.1209 19.2517 9.99262C19.8526 9.56615 20.3575 9.03354 20.7692 8.42062Z" fill="#BFBCBC"/>
<defs>
<linearGradient id="paint0_linear" x1="13.2836" y1="0" x2="13.2836" y2="26.5672" gradientUnits="userSpaceOnUse">
<stop stop-color="#696666"/>
<stop offset="1" stop-color="#515151"/>
</linearGradient>
</defs>
</svg>
